<?xml version="1.0" encoding="UTF-8" standalone="no"?>
<!-- Filename: fad733c8d74a2fd781bfbdbecef0c5cd12a7529497f80dcf7cde142b3793fb41.svg -->
<!-- Created with https://svgstud.io -->
<svg
  version="1.1"
  xmlns="http://www.w3.org/2000/svg"
  xmlns:xlink="http://www.w3.org/1999/xlink"
  xmlns:svg="http://www.w3.org/2000/svg"
  xmlns:rdf="http://www.w3.org/1999/02/22-rdf-syntax-ns#"
  xmlns:cc="http://creativecommons.org/ns#"
  xmlns:dc="http://purl.org/dc/elements/1.1/"
  viewBox="0 0 768 768"
  width="768"
  height="768"
  role="img"
  aria-labelledby="titleID descID"
>
  <title id="titleID">simple owl outline</title>
  <desc id="descID">AI-generated SVG illustration: simple owl outline, created on https://svgstud.io</desc>

  <rect width="100%" height="100%" fill="white" />

  <metadata>
    Created by https://svgstud.io and licensed under CC-BY-SA 4.0 license. Please attribute https://svgstud.io
  </metadata>
  <metadata>
    simple owl outline
  </metadata>
  <metadata>
    7
  </metadata>
  <metadata>
    <rdf:RDF
      xmlns:rdf="http://www.w3.org/1999/02/22-rdf-syntax-ns#"
      xmlns:cc="http://creativecommons.org/ns#"
      xmlns:dc="http://purl.org/dc/elements/1.1/"
    >
      <cc:Work rdf:about="">
        <cc:license rdf:resource="http://creativecommons.org/licenses/by-sa/4.0/" />
        <dc:creator>
          <cc:Agent>
            <dc:title>https://svgstud.io</dc:title>
          </cc:Agent>
        </dc:creator>
      </cc:Work>
      <cc:License rdf:about="http://creativecommons.org/licenses/by-sa/4.0/">
        <cc:permits rdf:resource="http://creativecommons.org/ns#Reproduction" />
        <cc:permits rdf:resource="http://creativecommons.org/ns#Distribution" />
        <cc:requires rdf:resource="http://creativecommons.org/ns#Notice" />
        <cc:requires rdf:resource="http://creativecommons.org/ns#Attribution" />
        <cc:permits rdf:resource="http://creativecommons.org/ns#DerivativeWorks" />
        <cc:requires rdf:resource="http://creativecommons.org/ns#ShareAlike" />
      </cc:License>
    </rdf:RDF>
  </metadata>
  <metadata id="uid">fad733c8d74a2fd781bfbdbecef0c5cd12a7529497f80dcf7cde142b3793fb41</metadata>

  <path stroke="none" fill="black" fill-rule="evenodd" d="M322.94,698.00C320.83,698.00 317.86,697.05 315.90,695.75C313.49,694.15 311.19,690.88 308.00,684.50C303.50,675.50 303.50,675.50 288.30,675.22C273.10,674.95 273.10,674.95 270.05,671.25C268.38,669.22 266.72,666.03 266.37,664.18C266.03,662.32 266.23,659.16 266.84,657.15C267.44,655.14 269.24,651.94 270.83,650.04C273.72,646.57 273.72,646.57 288.65,646.85C303.57,647.14 303.57,647.14 307.29,643.64C309.33,641.71 311.92,639.84 313.05,639.48C314.19,639.12 314.96,638.38 314.78,637.83C314.60,637.29 308.67,634.20 301.62,630.98C294.56,627.75 286.33,623.63 283.33,621.81C280.33,619.99 274.36,615.80 270.06,612.50C265.77,609.20 258.54,603.45 253.99,599.71C249.44,595.98 245.26,593.08 244.70,593.27C244.14,593.45 240.82,598.75 237.31,605.04C233.80,611.32 228.85,619.17 226.31,622.48C223.76,625.79 219.62,630.68 217.09,633.35C214.57,636.02 209.12,640.78 205.00,643.95C200.88,647.11 196.06,650.44 194.30,651.35C192.54,652.26 189.95,653.00 188.55,653.00C186.11,653.00 186.00,652.75 186.02,647.25C186.03,644.09 186.47,638.53 186.99,634.90C187.52,631.27 188.40,617.57 188.96,604.44C189.93,581.67 189.88,580.39 188.02,576.54C186.94,574.32 184.46,565.83 182.49,557.67C180.53,549.52 177.56,533.99 175.89,523.17C174.23,512.35 172.24,496.75 171.47,488.50C170.71,480.25 170.06,467.43 170.04,460.00C170.02,452.57 170.47,441.55 171.04,435.50C171.60,429.45 173.17,419.10 174.50,412.50C175.84,405.90 178.26,396.45 179.87,391.50C181.49,386.55 184.14,379.35 185.78,375.50C187.41,371.65 191.10,364.68 193.97,360.00C196.85,355.32 201.74,348.35 204.84,344.50C207.95,340.65 213.57,334.25 217.33,330.29C221.10,326.32 226.41,321.38 229.13,319.30C231.85,317.23 234.34,314.51 234.65,313.26C235.07,311.58 234.31,309.98 231.75,307.15C229.84,305.04 226.48,300.65 224.28,297.40C222.07,294.16 218.63,288.23 216.62,284.24C214.61,280.24 211.66,272.96 210.07,268.06C208.48,263.16 206.41,253.41 205.47,246.41C204.29,237.63 203.96,231.00 204.41,225.08C204.78,220.36 205.53,213.80 206.10,210.50C206.66,207.20 208.64,199.32 210.49,192.99C212.35,186.66 215.48,178.23 217.44,174.27C219.40,170.30 221.00,166.74 221.00,166.36C221.00,165.98 224.34,160.68 228.42,154.58C232.50,148.49 238.57,140.44 241.92,136.70C245.26,132.96 248.00,129.74 248.00,129.54C248.00,129.34 245.97,124.98 243.49,119.84C240.74,114.14 238.40,107.45 237.49,102.66C236.67,98.35 236.00,91.25 236.00,86.88C236.00,80.58 236.32,78.81 237.57,78.33C238.49,77.98 245.05,80.71 253.32,84.90C261.67,89.13 270.79,92.93 275.50,94.14C279.90,95.28 286.20,96.24 289.50,96.27C294.58,96.32 297.07,95.61 305.75,91.67C311.38,89.11 320.47,85.69 325.93,84.07C331.40,82.44 341.44,79.99 348.25,78.61C355.06,77.23 365.72,75.57 371.94,74.92C378.72,74.21 390.10,73.95 400.37,74.28C410.23,74.59 423.23,75.73 431.00,76.96C438.43,78.14 448.43,79.95 453.22,81.00C458.02,82.04 466.64,84.47 472.37,86.39C478.10,88.30 487.00,92.03 492.14,94.66C501.04,99.22 501.87,99.45 509.00,99.30C513.12,99.21 519.90,98.25 524.06,97.16C528.22,96.07 533.39,94.19 535.56,92.98C537.73,91.76 543.66,88.30 548.73,85.27C554.56,81.81 558.58,80.01 559.62,80.41C561.06,80.96 561.18,82.16 560.58,89.59C560.20,94.28 559.04,101.42 558.01,105.45C556.98,109.48 554.57,115.86 552.65,119.64C550.73,123.41 548.00,128.05 546.58,129.94C545.16,131.84 544.00,134.11 544.00,134.99C544.00,135.87 547.15,140.31 551.00,144.86C554.85,149.41 560.21,156.88 562.91,161.45C565.61,166.02 569.17,172.85 570.81,176.63C572.46,180.41 575.01,187.32 576.48,192.00C577.95,196.68 579.79,203.75 580.56,207.72C581.33,211.69 582.25,219.12 582.61,224.22C582.99,229.68 582.74,238.03 582.01,244.50C581.33,250.55 579.68,259.32 578.34,264.00C577.00,268.68 573.94,276.55 571.54,281.50C569.14,286.45 564.82,293.65 561.93,297.50C559.05,301.35 553.38,307.94 549.33,312.15C541.98,319.80 541.98,319.80 553.35,331.15C560.38,338.16 567.12,346.09 570.99,351.91C574.44,357.08 579.41,365.86 582.03,371.41C584.64,376.96 588.19,385.89 589.89,391.27C591.60,396.64 593.87,404.96 594.93,409.77C595.99,414.57 597.40,423.22 598.06,428.99C598.79,435.36 599.05,445.60 598.72,454.99C598.42,463.52 597.21,477.02 596.03,485.00C594.86,492.98 593.28,501.98 592.52,505.00C591.77,508.02 590.26,516.35 589.18,523.50C588.10,530.65 586.70,540.33 586.09,545.00C585.47,549.67 584.07,559.65 582.98,567.16C581.89,574.68 580.73,581.54 580.39,582.41C580.06,583.29 579.49,584.00 579.14,584.00C578.78,584.00 576.61,581.19 574.32,577.75C572.02,574.31 567.47,566.10 564.21,559.50C560.94,552.90 557.92,546.38 557.50,545.00C557.08,543.62 555.81,540.50 554.67,538.07C553.54,535.63 551.68,530.08 550.55,525.74C549.42,521.40 548.06,517.84 547.52,517.84C546.98,517.84 544.87,522.48 542.83,528.17C540.79,533.85 536.33,543.90 532.92,550.50C529.51,557.10 524.91,565.20 522.70,568.50C520.49,571.80 515.72,578.33 512.11,583.00C508.49,587.67 501.54,595.75 496.66,600.94C491.78,606.14 482.27,614.76 475.52,620.10C468.76,625.45 462.51,630.86 461.62,632.13C460.73,633.40 460.00,635.29 460.00,636.31C460.00,637.34 459.01,638.98 457.79,639.97C455.59,641.75 455.59,641.75 458.67,647.63C460.37,650.86 462.30,655.18 462.95,657.24C463.61,659.29 464.61,661.26 465.18,661.61C465.76,661.97 466.62,661.64 467.10,660.88C467.58,660.12 467.98,657.35 467.98,654.72C467.99,652.09 467.32,648.32 466.50,646.35C465.68,644.37 465.00,642.57 465.00,642.34C465.00,642.12 465.95,642.44 467.10,643.06C468.48,643.79 471.63,643.94 476.23,643.48C481.34,642.96 483.07,643.08 482.56,643.90C482.18,644.52 483.25,647.44 484.93,650.38C486.98,653.96 488.00,657.10 488.00,659.82C488.00,662.07 488.52,665.05 489.16,666.45C489.80,667.85 490.71,669.00 491.18,669.00C491.65,669.00 492.92,667.54 494.01,665.75C495.14,663.90 495.99,660.72 496.00,658.38C496.00,656.11 495.34,652.39 494.54,650.13C493.46,647.05 493.40,646.01 494.29,646.02C494.96,646.04 497.52,646.52 500.00,647.09C502.48,647.66 505.53,649.09 506.78,650.26C508.04,651.44 509.75,654.79 510.60,657.70C511.46,660.64 511.83,663.99 511.43,665.24C511.05,666.48 509.39,669.38 507.75,671.68C506.11,673.97 503.48,676.39 501.92,677.03C499.51,678.03 498.40,677.89 494.72,676.11C492.33,674.95 490.06,674.00 489.69,674.00C489.32,674.00 486.95,675.58 484.43,677.50C481.91,679.42 479.00,681.00 477.96,681.00C476.92,681.00 474.53,679.65 472.65,678.00C469.59,675.31 468.55,675.00 462.60,675.00C456.28,675.00 455.91,675.13 454.90,677.75C454.32,679.26 452.69,682.87 451.29,685.76C449.89,688.65 447.22,692.36 445.36,693.99C443.49,695.63 440.84,697.25 439.46,697.60C438.09,697.94 435.60,697.66 433.94,696.98C432.28,696.29 429.39,693.94 427.53,691.77C425.67,689.59 422.94,684.98 421.47,681.52C419.12,675.99 418.41,675.17 415.63,674.71C413.89,674.43 407.07,674.40 400.48,674.64C393.89,674.88 388.01,675.24 387.42,675.44C386.82,675.64 385.32,678.59 384.08,682.00C382.55,686.21 380.26,689.81 376.96,693.23C372.34,698.03 371.90,698.25 367.97,697.72C365.70,697.42 362.93,696.34 361.81,695.33C360.68,694.33 358.55,691.70 357.07,689.50C355.58,687.30 353.57,683.36 352.60,680.75C351.36,677.42 350.15,675.82 348.54,675.42C347.27,675.10 345.00,674.99 343.47,675.17C341.95,675.35 340.35,676.17 339.91,677.00C339.48,677.83 337.94,681.20 336.51,684.50C335.07,687.80 332.25,692.19 330.24,694.25C327.34,697.23 325.85,698.00 322.94,698.00zM322.22,677.00C323.27,677.00 324.99,676.54 326.04,675.98C327.17,675.38 328.64,672.61 329.60,669.30C330.67,665.61 331.07,661.68 330.73,658.00C330.45,654.90 329.27,650.48 328.10,648.20C326.93,645.91 324.64,643.35 323.00,642.50C320.32,641.11 319.66,641.12 316.30,642.52C314.25,643.38 312.22,644.62 311.80,645.29C311.38,645.95 311.02,647.50 311.02,648.72C311.01,649.94 311.88,652.64 312.96,654.72C314.04,656.80 315.43,661.88 316.06,666.00C316.69,670.12 317.90,674.29 318.75,675.25C319.61,676.21 321.17,677.00 322.22,677.00zM369.50,676.97C370.05,676.97 371.00,676.64 371.60,676.23C372.21,675.83 373.30,674.38 374.03,673.00C374.81,671.53 375.38,667.19 375.39,662.50C375.41,658.10 374.84,652.79 374.12,650.71C373.40,648.63 371.22,645.36 369.26,643.46C366.52,640.81 364.85,640.00 362.07,640.00C360.08,640.00 357.44,640.70 356.22,641.56C355.00,642.41 354.00,643.56 354.00,644.12C354.00,644.67 355.33,646.78 356.96,648.81C358.59,650.84 360.56,654.31 361.33,656.52C362.11,658.73 363.08,663.01 363.49,666.02C363.90,669.03 364.70,672.40 365.26,673.50C365.83,674.60 366.79,675.83 367.40,676.23C368.00,676.64 368.95,676.97 369.50,676.97zM436.78,676.80C438.17,676.64 440.17,675.34 441.22,673.91C442.37,672.37 443.50,668.48 444.04,664.23C444.73,658.73 444.59,655.97 443.42,652.05C442.59,649.26 440.58,645.45 438.95,643.59C437.31,641.73 434.83,639.92 433.43,639.57C431.72,639.14 429.60,639.66 426.94,641.15C424.78,642.37 423.00,643.90 423.00,644.55C423.00,645.20 423.84,646.80 424.86,648.12C425.88,649.43 427.45,651.92 428.34,653.66C429.23,655.40 430.61,660.57 431.41,665.16C432.21,669.75 433.18,674.31 433.56,675.30C434.03,676.52 435.08,677.01 436.78,676.80zM399.55,645.73C407.60,645.50 407.60,645.50 413.05,639.95C417.21,635.72 421.27,633.03 430.21,628.60C436.65,625.41 445.20,620.35 449.21,617.35C453.22,614.36 461.31,607.22 467.19,601.49C473.07,595.76 481.19,586.67 485.23,581.28C489.28,575.90 494.43,568.56 496.67,564.97C498.92,561.38 502.35,555.27 504.30,551.41C506.24,547.54 509.42,540.32 511.35,535.38C513.29,530.43 516.90,518.76 519.37,509.44C521.85,500.12 524.58,487.12 525.44,480.54C526.33,473.68 526.99,461.31 526.98,451.54C526.97,442.17 526.52,430.23 525.98,425.00C525.44,419.77 524.06,410.77 522.91,405.00C521.77,399.23 519.73,390.53 518.38,385.67C517.03,380.82 514.31,372.94 512.34,368.17C510.37,363.40 507.36,356.80 505.64,353.50C503.92,350.20 502.34,347.09 502.12,346.60C501.90,346.08 503.71,345.96 506.34,346.32C508.87,346.67 513.81,348.25 517.31,349.84C522.37,352.14 524.60,353.93 528.20,358.61C530.69,361.85 534.87,368.77 537.49,373.99C540.11,379.20 543.72,387.53 545.52,392.49C547.31,397.44 549.73,406.23 550.90,412.00C552.06,417.77 553.70,429.02 554.54,437.00C555.45,445.69 556.00,459.51 555.92,471.50C555.79,488.73 556.08,492.95 558.00,502.00C559.22,507.77 561.12,515.42 562.22,519.00C563.32,522.58 564.90,526.82 565.73,528.44C567.25,531.38 567.25,531.38 568.61,528.77C569.37,527.33 571.30,519.93 572.92,512.33C574.53,504.72 576.82,494.23 578.01,489.00C579.68,481.66 580.30,474.91 580.71,459.35C581.05,446.79 580.79,434.80 580.05,427.54C579.39,421.12 577.76,411.41 576.44,405.95C575.12,400.48 572.51,392.07 570.65,387.24C568.78,382.42 565.40,374.77 563.12,370.25C560.85,365.72 557.34,359.43 555.33,356.26C553.31,353.09 550.07,348.48 548.11,346.00C546.15,343.52 541.90,338.46 538.67,334.75C535.44,331.04 532.10,328.00 531.24,328.00C530.39,328.00 526.85,329.59 523.37,331.54C519.89,333.48 514.19,336.15 510.70,337.46C507.20,338.78 499.43,340.78 493.42,341.92C487.42,343.06 479.50,344.00 475.82,344.00C472.15,344.00 465.66,343.52 461.40,342.92C457.14,342.33 448.77,340.10 442.79,337.97C436.81,335.84 429.13,332.57 425.71,330.72C422.29,328.87 418.05,326.48 416.27,325.42C413.85,323.98 412.62,323.76 411.37,324.55C410.45,325.12 407.60,329.30 405.04,333.83C402.48,338.36 399.44,343.00 398.29,344.15C397.14,345.30 395.76,345.97 395.23,345.64C394.69,345.31 392.32,341.77 389.96,337.77C387.59,333.77 384.80,329.04 383.75,327.25C382.70,325.46 381.16,324.00 380.32,324.00C379.49,324.00 377.53,324.91 375.97,326.02C374.41,327.13 369.16,330.00 364.31,332.40C359.46,334.80 351.79,337.93 347.26,339.36C342.74,340.79 334.87,342.47 329.77,343.10C324.67,343.72 316.45,343.98 311.50,343.66C306.55,343.34 298.02,341.91 292.54,340.49C287.06,339.06 279.20,336.54 275.07,334.89C270.94,333.24 264.22,329.85 260.12,327.37C256.03,324.88 250.58,321.08 248.02,318.92C245.47,316.77 242.61,315.00 241.69,315.00C240.50,315.00 240.00,315.84 240.00,317.85C240.00,319.42 241.33,322.68 242.96,325.10C245.91,329.50 245.91,329.50 242.37,330.73C240.42,331.40 236.68,333.53 234.05,335.46C231.42,337.40 226.34,342.08 222.76,345.87C219.19,349.66 214.91,354.73 213.26,357.13C211.60,359.53 208.23,365.32 205.75,370.00C203.27,374.68 199.65,382.77 197.70,388.00C195.75,393.23 192.80,402.90 191.14,409.50C189.48,416.10 187.82,423.98 187.46,427.00C186.80,432.50 186.80,432.50 189.19,429.00C190.51,427.07 193.31,421.56 195.42,416.75C197.53,411.94 199.46,408.00 199.71,408.00C199.96,408.00 199.87,411.04 199.51,414.75C199.16,418.46 198.20,425.55 197.38,430.50C196.57,435.45 195.46,442.88 194.93,447.00C194.37,451.33 194.24,463.05 194.63,474.75C195.00,485.89 195.60,495.00 195.97,495.00C196.33,495.00 197.44,493.31 198.44,491.25C199.43,489.19 201.12,485.02 202.19,482.00C203.27,478.98 206.14,470.01 208.57,462.09C211.01,454.16 213.00,447.19 213.00,446.60C213.00,446.01 215.31,436.97 218.12,426.51C220.94,416.06 224.76,402.84 226.60,397.14C228.44,391.44 231.61,383.79 233.64,380.14C235.68,376.49 240.53,370.29 244.43,366.38C250.20,360.58 252.58,358.92 257.22,357.46C262.06,355.93 263.54,355.84 266.98,356.87C269.21,357.54 272.59,359.46 274.49,361.12C276.39,362.79 279.29,366.51 280.94,369.40C282.59,372.28 284.66,377.53 285.54,381.07C286.62,385.40 287.33,394.22 287.70,408.05C288.05,420.78 287.82,432.57 287.10,439.05C286.47,444.80 285.25,454.68 284.39,461.00C283.53,467.32 281.74,478.50 280.41,485.82C279.08,493.15 276.89,503.50 275.54,508.82C274.19,514.15 270.85,525.25 268.13,533.50C265.41,541.75 261.07,553.44 258.49,559.47C253.80,570.45 253.80,570.45 263.15,579.37C268.29,584.28 276.10,591.31 280.50,594.99C284.90,598.68 292.16,604.24 296.64,607.35C301.12,610.47 309.05,615.00 314.26,617.41C319.47,619.83 326.94,622.97 330.87,624.38C334.79,625.80 341.49,627.84 345.75,628.91C350.01,629.99 358.81,631.59 365.29,632.47C371.78,633.36 378.18,634.50 379.53,635.01C380.88,635.52 383.22,637.72 384.74,639.90C386.26,642.07 388.40,644.33 389.50,644.91C390.60,645.49 395.12,645.86 399.55,645.73zM396.75,608.47C392.80,609.01 392.00,608.86 392.00,607.53C392.00,606.65 396.25,601.45 401.43,595.97C406.62,590.49 414.22,581.49 418.32,575.98C423.73,568.71 425.94,566.40 426.39,567.56C426.72,568.44 427.00,575.90 427.00,584.12C427.00,599.08 427.00,599.08 420.25,602.11C416.54,603.78 410.80,605.74 407.50,606.48C404.20,607.21 399.36,608.11 396.75,608.47zM350.13,602.00C348.38,602.00 344.38,600.11 339.88,597.16C335.82,594.50 330.30,589.95 327.61,587.06C322.73,581.80 322.73,581.80 323.39,573.15C323.75,568.39 324.70,560.50 325.50,555.61C326.30,550.72 327.15,546.52 327.39,546.27C327.64,546.03 328.52,546.88 329.36,548.16C330.19,549.45 333.57,556.80 336.86,564.50C340.15,572.20 345.13,583.61 347.92,589.86C350.71,596.10 353.00,601.39 353.00,601.61C353.00,601.82 351.71,602.00 350.13,602.00zM223.96,544.00C224.47,544.00 226.85,541.41 229.26,538.25C231.67,535.09 236.13,528.45 239.17,523.50C242.21,518.55 247.20,509.51 250.26,503.40C253.31,497.30 258.26,485.60 261.25,477.40C264.24,469.21 267.88,457.99 269.33,452.48C270.78,446.96 272.42,438.19 272.97,432.98C273.52,427.76 273.97,418.99 273.98,413.47C273.99,407.96 273.53,399.67 272.95,395.06C272.37,390.44 270.56,383.20 268.93,378.97C267.30,374.74 265.06,370.46 263.97,369.47C262.05,367.73 261.90,367.74 259.67,369.84C258.40,371.03 255.96,375.72 254.25,380.26C252.54,384.79 249.30,394.57 247.04,402.00C244.79,409.43 241.56,419.32 239.86,424.00C238.16,428.68 233.68,439.76 229.90,448.64C226.13,457.52 220.39,472.14 217.14,481.14C213.90,490.14 209.42,503.12 207.20,510.00C204.97,516.88 202.17,526.47 200.98,531.32C199.79,536.18 199.04,540.38 199.32,540.66C199.60,540.94 201.50,538.56 203.53,535.38C205.57,532.20 209.60,524.40 212.48,518.05C215.37,511.70 221.17,497.89 225.37,487.36C229.56,476.83 233.00,467.74 233.00,467.17C233.00,466.59 233.52,465.80 234.16,465.40C235.03,464.86 235.17,468.03 234.69,478.09C234.34,485.47 233.13,497.99 232.00,505.93C230.87,513.86 229.23,523.53 228.35,527.43C227.47,531.32 225.91,536.64 224.89,539.25C223.87,541.86 223.45,544.00 223.96,544.00zM458.57,543.00C457.71,543.00 457.00,542.76 457.00,542.47C457.00,542.17 458.07,539.81 459.37,537.22C460.67,534.62 464.03,526.42 466.84,519.00C469.65,511.57 472.86,502.57 473.97,499.00C475.08,495.43 476.42,491.84 476.94,491.03C477.70,489.86 478.10,490.12 478.95,492.38C479.54,493.93 480.69,499.03 481.51,503.73C482.33,508.42 483.00,513.69 483.00,515.44C483.00,517.25 481.68,520.72 479.90,523.55C478.20,526.27 474.94,530.45 472.65,532.84C470.37,535.23 466.62,538.49 464.32,540.09C462.02,541.69 459.43,543.00 458.57,543.00zM349.35,525.00C348.65,525.00 347.51,523.99 346.83,522.75C346.15,521.51 344.33,517.87 342.80,514.66C341.26,511.45 340.00,507.40 340.01,505.66C340.01,503.92 341.35,495.52 342.99,487.00C344.62,478.48 346.48,469.48 347.13,467.00C347.77,464.52 348.66,462.09 349.11,461.59C349.57,461.07 350.39,461.89 350.98,463.44C351.56,464.96 353.83,473.36 356.02,482.09C359.44,495.68 359.88,498.58 359.05,502.24C358.52,504.58 357.22,508.98 356.16,512.00C355.11,515.02 353.43,519.19 352.44,521.25C351.44,523.31 350.05,525.00 349.35,525.00zM423.91,507.05C422.62,507.74 422.00,507.74 422.00,507.05C422.00,506.49 423.82,497.73 426.04,487.58C428.25,477.43 430.75,466.83 431.58,464.03C432.41,461.23 433.51,459.20 434.01,459.51C434.51,459.82 435.39,461.74 435.97,463.79C436.54,465.83 437.72,471.64 438.59,476.70C440.18,485.90 440.18,485.90 437.50,490.82C436.03,493.52 432.80,498.05 430.33,500.88C427.85,503.71 424.96,506.48 423.91,507.05zM399.15,325.25C399.62,324.78 400.67,320.83 401.49,316.45C402.32,312.08 404.16,302.20 405.60,294.50C407.04,286.80 408.28,279.38 408.36,278.00C408.48,275.92 408.08,275.53 406.00,275.66C404.62,275.76 401.63,276.15 399.34,276.53C396.24,277.06 394.59,276.83 392.87,275.62C391.60,274.73 389.80,274.00 388.89,274.00C387.97,274.00 386.28,274.79 385.13,275.75C383.03,277.50 383.03,277.50 384.94,286.00C385.99,290.68 388.90,300.97 391.40,308.88C393.91,316.78 396.49,323.89 397.14,324.67C397.79,325.45 398.69,325.71 399.15,325.25zM318.50,323.91C326.27,323.96 331.95,323.40 337.86,321.98C342.45,320.88 349.21,318.50 352.87,316.70C356.53,314.89 362.00,311.75 365.02,309.72C368.03,307.68 371.60,305.16 372.94,304.11C375.38,302.21 375.38,302.21 372.68,293.35C371.19,288.48 369.98,282.79 369.99,280.70C369.99,278.61 370.68,275.59 371.51,273.99C372.33,272.39 376.61,266.31 381.02,260.48C385.42,254.65 389.85,248.22 390.87,246.19C391.89,244.16 393.50,240.13 394.45,237.24C395.39,234.35 396.58,232.24 397.08,232.55C397.59,232.86 398.00,233.75 398.00,234.52C398.00,235.29 398.92,238.37 400.03,241.36C401.15,244.35 405.69,251.68 410.13,257.65C414.56,263.62 419.04,270.17 420.09,272.21C421.14,274.25 422.00,277.27 422.00,278.92C422.00,280.57 420.88,285.43 419.51,289.71C418.14,294.00 417.02,298.26 417.01,299.18C417.01,300.11 418.91,302.38 421.25,304.23C423.59,306.08 427.30,308.79 429.50,310.25C431.70,311.71 437.07,314.56 441.44,316.57C445.80,318.58 453.45,321.07 458.44,322.10C463.42,323.13 470.88,323.97 475.00,323.97C479.12,323.97 486.55,323.14 491.50,322.11C496.45,321.09 503.43,318.92 507.00,317.30C510.57,315.67 516.53,312.49 520.24,310.24C523.95,307.98 529.29,304.19 532.11,301.82C534.93,299.44 539.90,294.18 543.16,290.13C546.42,286.08 550.71,279.56 552.68,275.63C554.66,271.71 557.36,265.63 558.68,262.11C560.00,258.60 561.74,252.30 562.54,248.11C563.34,243.93 564.00,236.22 564.00,231.00C563.99,225.78 563.36,217.68 562.59,213.00C561.82,208.32 560.31,201.34 559.22,197.49C558.14,193.63 555.12,186.21 552.50,180.99C549.88,175.77 546.49,169.70 544.97,167.50C543.45,165.30 540.47,161.62 538.35,159.32C536.23,157.02 532.48,153.47 530.00,151.43C525.50,147.73 525.50,147.73 513.25,148.34C506.36,148.69 501.00,148.57 501.00,148.07C501.00,147.59 503.59,145.74 506.75,143.96C509.91,142.19 514.30,139.34 516.50,137.64C518.70,135.94 523.32,132.06 526.78,129.03C530.23,125.99 535.01,121.03 537.39,118.00C539.78,114.97 543.39,109.19 545.43,105.15C547.46,101.10 548.89,97.55 548.59,97.26C548.30,96.97 544.94,99.24 541.14,102.32C537.33,105.40 530.75,110.02 526.51,112.59C522.27,115.17 516.26,118.05 513.15,119.01C510.04,119.96 502.77,121.06 497.00,121.43C491.23,121.81 482.75,122.99 478.17,124.06C473.59,125.13 466.84,127.20 463.17,128.66C459.50,130.12 452.68,133.69 448.00,136.59C443.32,139.49 436.80,144.15 433.50,146.95C430.20,149.75 425.11,154.85 422.19,158.27C419.27,161.70 415.02,167.20 412.76,170.50C410.49,173.80 406.96,180.10 404.90,184.50C402.85,188.90 400.19,195.54 399.00,199.25C397.80,202.96 396.47,206.00 396.03,206.00C395.60,206.00 394.78,204.76 394.21,203.25C393.65,201.74 391.97,196.45 390.49,191.50C389.00,186.55 386.21,179.80 384.28,176.50C382.35,173.20 379.38,168.70 377.67,166.50C375.97,164.30 370.96,158.74 366.54,154.14C362.12,149.55 354.23,142.75 349.00,139.03C343.77,135.32 337.02,131.02 334.00,129.49C330.98,127.96 324.00,125.18 318.50,123.31C313.00,121.45 302.05,118.14 294.16,115.96C286.28,113.78 276.48,110.66 272.39,109.02C268.30,107.38 262.29,104.23 259.03,102.02C255.77,99.81 252.64,98.00 252.05,98.00C251.47,98.00 251.00,98.58 251.00,99.28C251.00,99.98 252.51,103.69 254.35,107.53C256.20,111.36 260.14,117.37 263.10,120.87C266.07,124.37 273.00,130.70 278.50,134.93C284.00,139.17 290.25,143.69 292.40,144.99C295.99,147.16 296.13,147.41 294.19,148.12C293.03,148.55 289.48,148.48 286.29,147.96C283.11,147.44 276.91,145.91 272.52,144.55C265.21,142.28 264.34,142.20 262.20,143.60C260.92,144.44 258.07,146.99 255.86,149.26C253.65,151.54 248.83,157.92 245.14,163.45C241.45,168.98 236.71,177.53 234.60,182.45C232.49,187.38 229.95,194.35 228.96,197.95C227.96,201.55 226.44,208.26 225.58,212.86C224.71,217.46 224.00,226.01 224.01,231.86C224.01,240.41 224.59,244.69 226.95,253.66C228.56,259.80 231.32,267.68 233.08,271.16C234.84,274.65 238.41,280.65 241.01,284.50C243.62,288.35 248.17,293.77 251.12,296.55C254.08,299.33 259.20,303.44 262.50,305.67C265.80,307.90 272.10,311.53 276.50,313.72C280.90,315.92 286.80,318.47 289.61,319.39C292.43,320.32 297.60,321.69 301.11,322.46C304.63,323.22 312.45,323.87 318.50,323.91zM316.07,276.88C315.20,276.82 312.14,276.37 309.25,275.89C306.36,275.41 301.31,273.92 298.03,272.59C294.74,271.25 290.07,268.74 287.64,266.99C285.22,265.25 281.22,261.49 278.75,258.64C276.28,255.78 273.35,251.64 272.22,249.44C271.10,247.24 269.42,242.80 268.48,239.58C267.24,235.32 266.88,231.22 267.17,224.61C267.51,216.97 268.09,214.40 270.75,208.71C272.50,204.97 275.96,199.35 278.44,196.21C280.91,193.07 284.44,189.31 286.28,187.86C288.11,186.41 292.51,183.73 296.06,181.89C302.35,178.64 302.79,178.56 315.00,178.56C325.63,178.56 328.35,178.90 333.15,180.82C336.26,182.06 340.64,184.30 342.88,185.81C345.12,187.31 348.74,190.24 350.93,192.31C353.12,194.39 356.52,199.10 358.48,202.79C360.45,206.48 362.72,211.72 363.53,214.43C364.34,217.14 364.99,222.99 364.97,227.43C364.95,232.48 364.27,237.42 363.16,240.63C362.19,243.45 359.84,248.34 357.94,251.48C356.05,254.63 352.02,259.66 349.00,262.68C345.58,266.08 340.85,269.43 336.50,271.50C332.65,273.34 326.83,275.33 323.57,275.92C320.30,276.52 316.93,276.95 316.07,276.88zM479.00,276.32C476.52,276.58 472.48,276.43 470.00,275.99C467.52,275.56 462.98,274.25 459.89,273.08C456.81,271.92 452.20,269.58 449.65,267.89C447.10,266.20 443.19,262.75 440.96,260.21C438.73,257.68 435.03,251.83 432.74,247.21C428.96,239.58 428.55,237.99 428.19,229.66C427.87,222.21 428.20,219.32 429.94,214.17C431.11,210.68 433.48,205.34 435.20,202.30C436.92,199.25 440.16,194.96 442.41,192.76C444.66,190.55 449.11,187.04 452.30,184.94C455.96,182.54 460.64,180.56 465.00,179.57C468.79,178.71 474.06,178.01 476.70,178.02C479.34,178.03 484.50,178.67 488.16,179.45C491.83,180.22 496.33,181.63 498.16,182.57C500.00,183.51 504.20,186.41 507.50,189.02C511.36,192.08 514.85,196.04 517.28,200.14C519.36,203.64 522.00,209.56 523.15,213.30C524.82,218.78 525.15,222.02 524.84,229.88C524.49,238.51 524.05,240.46 521.10,246.46C519.25,250.20 515.47,255.79 512.67,258.88C509.88,261.97 505.78,265.96 503.55,267.75C501.11,269.71 496.32,271.96 491.50,273.43C487.10,274.76 481.48,276.06 479.00,276.32zM398.10,272.99C398.42,272.99 399.38,272.21 400.22,271.25C401.07,270.29 402.52,268.00 403.45,266.17C405.07,262.96 405.05,262.67 402.82,258.17C401.00,254.50 399.97,253.50 398.04,253.50C396.19,253.50 394.63,254.85 391.79,258.92C389.70,261.90 388.00,264.89 388.00,265.55C388.00,266.22 390.14,268.16 392.75,269.87C395.36,271.58 397.77,272.98 398.10,272.99zM316.04,266.91C319.09,266.96 324.26,266.30 327.54,265.45C330.82,264.60 335.75,262.64 338.50,261.11C341.59,259.38 344.25,256.94 345.48,254.72C346.56,252.74 347.16,250.83 346.80,250.47C346.44,250.11 345.30,250.09 344.27,250.42C343.23,250.74 338.67,253.47 334.13,256.47C329.59,259.48 324.41,262.21 322.62,262.54C320.83,262.88 316.50,262.63 313.00,262.00C309.49,261.36 304.52,259.78 301.95,258.48C299.38,257.17 294.66,253.72 291.47,250.80C288.27,247.89 284.39,243.74 282.83,241.60C280.04,237.76 280.00,237.74 280.00,240.41C280.00,241.90 281.14,245.54 282.54,248.49C283.94,251.45 286.65,255.24 288.57,256.93C290.49,258.61 293.96,260.97 296.28,262.17C298.60,263.37 302.75,264.91 305.50,265.59C308.25,266.27 312.99,266.87 316.04,266.91zM479.50,266.57C483.63,266.38 488.96,265.32 492.50,263.98C496.13,262.61 499.92,260.24 502.10,257.97C504.09,255.91 505.96,253.25 506.28,252.05C506.59,250.86 506.53,250.02 506.14,250.19C505.75,250.36 501.30,252.89 496.25,255.80C490.37,259.20 485.24,261.40 481.98,261.91C479.18,262.36 474.89,262.35 472.46,261.89C470.02,261.44 466.73,260.39 465.13,259.57C463.54,258.75 461.96,257.33 461.61,256.42C461.08,255.04 461.43,254.87 463.74,255.43C465.26,255.80 470.17,256.36 474.65,256.67C481.94,257.18 483.38,256.97 488.33,254.71C492.29,252.90 494.65,250.98 496.65,247.95C498.50,245.16 499.45,242.41 499.45,239.88C499.45,237.78 498.92,235.52 498.27,234.87C497.36,233.96 495.76,235.06 491.29,239.69C487.68,243.43 484.04,246.17 481.61,246.97C479.35,247.71 475.72,248.01 472.93,247.68C470.29,247.37 466.38,246.21 464.22,245.11C462.07,244.02 459.00,241.58 457.41,239.70C455.81,237.82 453.70,235.30 452.72,234.10C451.75,232.90 450.46,232.22 449.86,232.59C449.18,233.00 449.00,234.85 449.37,237.38C449.70,239.65 450.27,242.56 450.63,243.86C451.25,246.07 451.09,246.18 448.15,245.53C445.47,244.94 445.00,245.13 445.00,246.77C445.00,247.83 446.35,250.57 448.00,252.85C449.66,255.13 452.84,258.32 455.08,259.94C457.31,261.56 461.25,263.56 463.82,264.38C466.39,265.20 469.40,266.10 470.50,266.38C471.60,266.66 475.65,266.74 479.50,266.57zM321.50,256.68C326.95,256.49 330.77,255.78 333.46,254.45C335.65,253.38 338.46,250.97 339.71,249.10C341.11,247.03 342.00,244.21 342.00,241.85C342.00,239.73 341.63,238.00 341.19,238.00C340.74,238.00 339.11,239.32 337.57,240.93C336.03,242.54 332.47,244.84 329.67,246.05C325.66,247.77 323.41,248.12 319.09,247.67C315.36,247.28 312.32,246.20 309.55,244.27C307.32,242.72 303.78,238.87 301.68,235.72C299.57,232.57 297.26,230.00 296.53,230.00C295.81,230.00 294.94,230.71 294.61,231.58C294.27,232.45 294.00,234.75 294.00,236.70C294.00,238.64 295.17,242.37 296.59,245.00C298.02,247.62 300.57,250.79 302.26,252.04C303.96,253.29 307.18,254.91 309.42,255.64C311.82,256.42 316.79,256.85 321.50,256.68zM336.87,226.00C339.45,226.00 341.14,225.09 344.12,222.12C347.29,218.94 348.00,217.53 347.99,214.37C347.99,212.24 347.14,209.21 346.10,207.64C345.07,206.07 342.93,203.93 341.36,202.90C339.79,201.86 336.87,201.01 334.88,201.01C332.68,201.00 330.19,201.85 328.51,203.17C327.00,204.36 325.13,206.84 324.36,208.68C323.54,210.64 323.24,213.15 323.64,214.76C324.01,216.27 325.01,218.58 325.87,219.89C326.72,221.21 328.78,223.12 330.46,224.14C332.13,225.16 335.02,225.99 336.87,226.00zM490.37,225.98C493.54,226.00 494.93,225.30 498.12,222.12C501.50,218.74 502.00,217.64 502.00,213.65C502.00,209.99 501.40,208.39 499.00,205.66C497.36,203.78 494.63,201.68 492.95,200.98C490.58,200.00 489.04,199.97 486.04,200.87C483.89,201.52 480.82,203.58 479.09,205.55C477.39,207.48 476.00,210.04 476.00,211.22C476.00,212.40 476.93,215.28 478.06,217.62C479.19,219.96 481.56,222.80 483.31,223.92C485.09,225.07 488.21,225.97 490.37,225.98zM389.75,159.26C389.94,158.69 389.13,155.36 387.96,151.86C386.78,148.36 383.83,141.39 381.41,136.37C378.98,131.35 377.00,126.71 377.00,126.06C377.00,125.30 378.08,125.52 380.10,126.69C381.81,127.69 385.68,131.16 388.70,134.41C391.72,137.66 395.79,142.73 397.74,145.66C399.69,148.60 401.66,151.00 402.13,151.00C402.59,151.00 405.56,147.36 408.74,142.92C411.91,138.47 417.14,131.71 420.36,127.89C423.58,124.08 428.69,119.19 431.71,117.02C434.73,114.86 438.76,112.57 440.67,111.94C442.57,111.32 444.38,111.05 444.69,111.35C444.99,111.66 443.84,113.81 442.13,116.13C440.42,118.46 439.15,120.48 439.29,120.63C439.44,120.77 444.82,118.91 451.24,116.49C457.66,114.07 466.59,111.40 471.07,110.55C475.55,109.70 481.42,109.00 484.11,109.00C487.69,109.00 489.00,108.62 489.00,107.57C489.00,106.78 487.76,105.26 486.25,104.20C484.74,103.13 481.25,101.12 478.49,99.73C475.74,98.35 469.63,96.04 464.93,94.60C460.22,93.17 449.87,90.68 441.93,89.07C434.00,87.46 422.77,85.60 417.00,84.93C410.36,84.17 399.88,83.93 388.50,84.29C376.28,84.67 366.97,85.54 359.50,86.99C353.45,88.17 344.45,90.19 339.50,91.49C334.55,92.79 327.35,94.95 323.50,96.30C319.65,97.64 314.38,99.78 311.79,101.05C309.20,102.32 306.82,104.03 306.50,104.85C306.19,105.67 306.29,106.66 306.72,107.05C307.15,107.45 310.65,108.29 314.50,108.93C318.35,109.56 325.10,111.23 329.50,112.63C333.90,114.03 340.43,116.71 344.00,118.59C347.57,120.47 353.43,124.22 357.00,126.91C360.57,129.61 367.10,135.60 371.50,140.23C375.90,144.85 381.73,151.27 384.45,154.47C387.17,157.68 389.55,159.84 389.75,159.26z" />

</svg>
